<?xml version="1.0" encoding="utf-8"?><svg xmlns="http://www.w3.org/2000/svg" xmlns:xlink="http://www.w3.org/1999/xlink" width="1920" height="808" preserveAspectRatio="xMidYMid" viewBox="0 0 1920 808" style="z-index:1;margin-right:-2px;display:block;background-repeat-y:initial;background-repeat-x:initial;animation-play-state:paused" ><g transform="translate(960,404) scale(1,1) translate(-960,-404)" style="transform:matrix(1, 0, 0, 1, 0, 0);animation-play-state:paused" ><linearGradient id="lg-0.02750607893687218" x1="0" x2="1" y1="0" y2="0" style="animation-play-state:paused" ><stop stop-color="#df0305" offset="0" style="animation-play-state:paused" ></stop>

  
<stop stop-color="#fff100" offset="1" style="animation-play-state:paused" ></stop></linearGradient>
<path d="M 0 0 L 0 648.306 Q 240 631.208 480 591.906 T 960 406.879 T 1440 23.2617 T 1920 16.2381 L 1920 0 Z" fill="url(#lg-0.02750607893687218)" opacity="0.4" style="opacity:0.4;animation-play-state:paused" ></path>
<path d="M 0 0 L 0 722.909 Q 240 498.621 480 471.8 T 960 276.009 T 1440 145.44 T 1920 -128.768 L 1920 0 Z" fill="url(#lg-0.02750607893687218)" opacity="0.4" style="opacity:0.4;animation-play-state:paused" ></path>
<path d="M 0 0 L 0 688.874 Q 240 455.462 480 438.025 T 960 306.291 T 1440 86.1945 T 1920 75.9042 L 1920 0 Z" fill="url(#lg-0.02750607893687218)" opacity="0.4" style="opacity:0.4;animation-play-state:paused" ></path>
<path d="M 0 0 L 0 691.223 Q 240 550.781 480 534.24 T 960 248.51 T 1440 89.1441 T 1920 -46.4452 L 1920 0 Z" fill="url(#lg-0.02750607893687218)" opacity="0.4" style="opacity:0.4;animation-play-state:paused" ></path>
<path d="M 0 0 L 0 650.694 Q 240 468.71 480 443.028 T 960 389.425 T 1440 141.143 T 1920 -143.016 L 1920 0 Z" fill="url(#lg-0.02750607893687218)" opacity="0.4" style="opacity:0.4;animation-play-state:paused" ></path>
<path d="M 0 0 L 0 754.539 Q 240 481.889 480 437.893 T 960 347.236 T 1440 226.373 T 1920 -33.9515 L 1920 0 Z" fill="url(#lg-0.02750607893687218)" opacity="0.4" style="opacity:0.4;animation-play-state:paused" ></path>
<path d="M 0 0 L 0 689.854 Q 240 493.485 480 458.326 T 960 228.38 T 1440 49.5671 T 1920 -133.879 L 1920 0 Z" fill="url(#lg-0.02750607893687218)" opacity="0.4" style="opacity:0.4;animation-play-state:paused" ></path></g></svg>